<mxfile host="app.diagrams.net" modified="2021-10-23T21:28:18.707Z" agent="5.0 (Windows NT 10.0; Win64; x64) AppleWebKit/537.36 (KHTML, like Gecko) Chrome/94.0.4606.81 Safari/537.36" etag="1Sns5OPqo2CHRDquSuSl" version="15.5.8" type="github">
  <diagram id="oiyiW2vkrC8ygkZaL_Hv" name="Page-1">
    <mxGraphModel dx="2462" dy="2046" grid="1" gridSize="10" guides="1" tooltips="1" connect="1" arrows="1" fold="1" page="1" pageScale="1" pageWidth="827" pageHeight="1169" math="0" shadow="0">
      <root>
        <mxCell id="0" />
        <mxCell id="1" parent="0" />
        <mxCell id="nYWHVTbInicaqjC0b95Y-31" value="" style="ellipse;shape=cloud;whiteSpace=wrap;html=1;" parent="1" vertex="1">
          <mxGeometry x="-120" y="-210" width="970" height="820" as="geometry" />
        </mxCell>
        <mxCell id="nYWHVTbInicaqjC0b95Y-1" value="&lt;b&gt;Api Service&lt;/b&gt;" style="rounded=0;whiteSpace=wrap;html=1;" parent="1" vertex="1">
          <mxGeometry x="280" y="80" width="120" height="80" as="geometry" />
        </mxCell>
        <mxCell id="nYWHVTbInicaqjC0b95Y-2" value="&lt;b&gt;Order Service&lt;/b&gt;" style="whiteSpace=wrap;html=1;aspect=fixed;fillColor=#e1d5e7;strokeColor=#9673a6;" parent="1" vertex="1">
          <mxGeometry x="200" y="240" width="100" height="100" as="geometry" />
        </mxCell>
        <mxCell id="nYWHVTbInicaqjC0b95Y-3" value="&lt;b&gt;User Service&lt;/b&gt;" style="whiteSpace=wrap;html=1;aspect=fixed;fillColor=#f8cecc;strokeColor=#b85450;" parent="1" vertex="1">
          <mxGeometry x="380" y="240" width="100" height="100" as="geometry" />
        </mxCell>
        <mxCell id="nYWHVTbInicaqjC0b95Y-6" value="Kafka for events" style="text;html=1;align=center;verticalAlign=middle;resizable=0;points=[];autosize=1;strokeColor=none;fillColor=none;" parent="1" vertex="1">
          <mxGeometry x="290" y="200" width="100" height="20" as="geometry" />
        </mxCell>
        <mxCell id="nYWHVTbInicaqjC0b95Y-8" value="" style="endArrow=classic;html=1;rounded=0;edgeStyle=orthogonalEdgeStyle;entryX=1;entryY=0.5;entryDx=0;entryDy=0;" parent="1" target="nYWHVTbInicaqjC0b95Y-1" edge="1">
          <mxGeometry width="50" height="50" relative="1" as="geometry">
            <mxPoint x="480" y="280" as="sourcePoint" />
            <mxPoint x="520" y="120" as="targetPoint" />
            <Array as="points">
              <mxPoint x="530" y="280" />
              <mxPoint x="530" y="120" />
            </Array>
          </mxGeometry>
        </mxCell>
        <mxCell id="nYWHVTbInicaqjC0b95Y-9" value="" style="endArrow=classic;html=1;rounded=0;edgeStyle=orthogonalEdgeStyle;entryX=0;entryY=0.5;entryDx=0;entryDy=0;exitX=0;exitY=0.5;exitDx=0;exitDy=0;fillColor=#d5e8d4;strokeColor=#82b366;strokeWidth=4;" parent="1" source="nYWHVTbInicaqjC0b95Y-2" target="nYWHVTbInicaqjC0b95Y-1" edge="1">
          <mxGeometry width="50" height="50" relative="1" as="geometry">
            <mxPoint x="100" y="280" as="sourcePoint" />
            <mxPoint x="20" y="120" as="targetPoint" />
            <Array as="points">
              <mxPoint x="150" y="280" />
              <mxPoint x="150" y="120" />
            </Array>
          </mxGeometry>
        </mxCell>
        <mxCell id="nYWHVTbInicaqjC0b95Y-10" value="Reactive REST for data" style="text;html=1;align=center;verticalAlign=middle;resizable=0;points=[];autosize=1;strokeColor=none;fillColor=none;" parent="1" vertex="1">
          <mxGeometry y="180" width="140" height="20" as="geometry" />
        </mxCell>
        <mxCell id="nYWHVTbInicaqjC0b95Y-11" value="Rsocket for push" style="text;html=1;align=center;verticalAlign=middle;resizable=0;points=[];autosize=1;strokeColor=none;fillColor=none;" parent="1" vertex="1">
          <mxGeometry x="530" y="190" width="110" height="20" as="geometry" />
        </mxCell>
        <mxCell id="nYWHVTbInicaqjC0b95Y-12" value="PostgreSQL" style="shape=cylinder3;whiteSpace=wrap;html=1;boundedLbl=1;backgroundOutline=1;size=15;fillColor=#d5e8d4;strokeColor=#82b366;" parent="1" vertex="1">
          <mxGeometry x="210" y="400" width="80" height="60" as="geometry" />
        </mxCell>
        <mxCell id="nYWHVTbInicaqjC0b95Y-13" value="" style="endArrow=none;dashed=1;html=1;rounded=0;edgeStyle=orthogonalEdgeStyle;entryX=0.5;entryY=1;entryDx=0;entryDy=0;exitX=0.5;exitY=0;exitDx=0;exitDy=0;exitPerimeter=0;fillColor=#d5e8d4;strokeColor=#82b366;strokeWidth=3;" parent="1" source="nYWHVTbInicaqjC0b95Y-12" target="nYWHVTbInicaqjC0b95Y-2" edge="1">
          <mxGeometry width="50" height="50" relative="1" as="geometry">
            <mxPoint x="390" y="410" as="sourcePoint" />
            <mxPoint x="440" y="360" as="targetPoint" />
          </mxGeometry>
        </mxCell>
        <mxCell id="nYWHVTbInicaqjC0b95Y-14" value="Redis" style="shape=cylinder3;whiteSpace=wrap;html=1;boundedLbl=1;backgroundOutline=1;size=15;" parent="1" vertex="1">
          <mxGeometry x="350" y="400" width="60" height="60" as="geometry" />
        </mxCell>
        <mxCell id="nYWHVTbInicaqjC0b95Y-15" value="Mongo" style="shape=cylinder3;whiteSpace=wrap;html=1;boundedLbl=1;backgroundOutline=1;size=15;fillColor=#d5e8d4;strokeColor=#82b366;" parent="1" vertex="1">
          <mxGeometry x="470" y="400" width="60" height="60" as="geometry" />
        </mxCell>
        <mxCell id="nYWHVTbInicaqjC0b95Y-16" value="" style="endArrow=none;dashed=1;html=1;rounded=0;edgeStyle=orthogonalEdgeStyle;exitX=0.5;exitY=0;exitDx=0;exitDy=0;exitPerimeter=0;entryX=0.5;entryY=1;entryDx=0;entryDy=0;" parent="1" source="nYWHVTbInicaqjC0b95Y-14" target="nYWHVTbInicaqjC0b95Y-3" edge="1">
          <mxGeometry width="50" height="50" relative="1" as="geometry">
            <mxPoint x="390" y="410" as="sourcePoint" />
            <mxPoint x="440" y="360" as="targetPoint" />
          </mxGeometry>
        </mxCell>
        <mxCell id="nYWHVTbInicaqjC0b95Y-17" value="" style="endArrow=none;dashed=1;html=1;rounded=0;edgeStyle=orthogonalEdgeStyle;exitX=0.5;exitY=0;exitDx=0;exitDy=0;exitPerimeter=0;entryX=0.5;entryY=1;entryDx=0;entryDy=0;" parent="1" source="nYWHVTbInicaqjC0b95Y-15" target="nYWHVTbInicaqjC0b95Y-3" edge="1">
          <mxGeometry width="50" height="50" relative="1" as="geometry">
            <mxPoint x="410" y="360" as="sourcePoint" />
            <mxPoint x="450" y="330" as="targetPoint" />
          </mxGeometry>
        </mxCell>
        <mxCell id="nYWHVTbInicaqjC0b95Y-18" value="R2DBC" style="text;html=1;align=center;verticalAlign=middle;resizable=0;points=[];autosize=1;strokeColor=none;fillColor=none;" parent="1" vertex="1">
          <mxGeometry x="250" y="370" width="60" height="20" as="geometry" />
        </mxCell>
        <mxCell id="nYWHVTbInicaqjC0b95Y-19" value="Reactive Drivers" style="text;html=1;align=center;verticalAlign=middle;resizable=0;points=[];autosize=1;strokeColor=none;fillColor=none;" parent="1" vertex="1">
          <mxGeometry x="390" y="370" width="100" height="20" as="geometry" />
        </mxCell>
        <mxCell id="nYWHVTbInicaqjC0b95Y-20" value="Reactive REST for data" style="text;html=1;align=center;verticalAlign=middle;resizable=0;points=[];autosize=1;strokeColor=none;fillColor=none;" parent="1" vertex="1">
          <mxGeometry x="530" y="230" width="140" height="20" as="geometry" />
        </mxCell>
        <mxCell id="nYWHVTbInicaqjC0b95Y-21" value="&lt;div&gt;Kotlin&lt;/div&gt;&lt;div&gt;Webflux&lt;br&gt;&lt;/div&gt;" style="text;html=1;align=center;verticalAlign=middle;resizable=0;points=[];autosize=1;strokeColor=#9673a6;fillColor=#e1d5e7;" parent="1" vertex="1">
          <mxGeometry x="240" y="310" width="60" height="30" as="geometry" />
        </mxCell>
        <mxCell id="nYWHVTbInicaqjC0b95Y-22" value="&lt;div&gt;&lt;span&gt;Java 11&lt;/span&gt;&lt;/div&gt;&lt;div&gt;&lt;span&gt;Webflux&lt;/span&gt;&lt;/div&gt;" style="text;html=1;align=center;verticalAlign=middle;resizable=0;points=[];autosize=1;strokeColor=none;fillColor=none;" parent="1" vertex="1">
          <mxGeometry x="420" y="310" width="60" height="30" as="geometry" />
        </mxCell>
        <mxCell id="nYWHVTbInicaqjC0b95Y-23" value="&lt;div&gt;Kotlin&lt;/div&gt;&lt;div&gt;Webflux&lt;br&gt;&lt;/div&gt;" style="text;html=1;align=center;verticalAlign=middle;resizable=0;points=[];autosize=1;strokeColor=none;fillColor=none;" parent="1" vertex="1">
          <mxGeometry x="340" y="130" width="60" height="30" as="geometry" />
        </mxCell>
        <mxCell id="nYWHVTbInicaqjC0b95Y-24" value="Ingress" style="shape=hexagon;perimeter=hexagonPerimeter2;whiteSpace=wrap;html=1;fixedSize=1;" parent="1" vertex="1">
          <mxGeometry x="295" y="-50" width="90" height="80" as="geometry" />
        </mxCell>
        <mxCell id="nYWHVTbInicaqjC0b95Y-26" value="" style="endArrow=classic;html=1;rounded=0;edgeStyle=orthogonalEdgeStyle;exitX=0.375;exitY=1;exitDx=0;exitDy=0;" parent="1" source="nYWHVTbInicaqjC0b95Y-24" edge="1">
          <mxGeometry relative="1" as="geometry">
            <mxPoint x="360" y="270" as="sourcePoint" />
            <mxPoint x="329" y="80" as="targetPoint" />
          </mxGeometry>
        </mxCell>
        <mxCell id="nYWHVTbInicaqjC0b95Y-27" value="Http" style="edgeLabel;resizable=0;html=1;align=center;verticalAlign=middle;" parent="nYWHVTbInicaqjC0b95Y-26" connectable="0" vertex="1">
          <mxGeometry relative="1" as="geometry" />
        </mxCell>
        <mxCell id="nYWHVTbInicaqjC0b95Y-28" value="" style="endArrow=classic;html=1;rounded=0;edgeStyle=orthogonalEdgeStyle;exitX=0.592;exitY=-0.05;exitDx=0;exitDy=0;entryX=0.625;entryY=1;entryDx=0;entryDy=0;exitPerimeter=0;" parent="1" source="nYWHVTbInicaqjC0b95Y-1" target="nYWHVTbInicaqjC0b95Y-24" edge="1">
          <mxGeometry relative="1" as="geometry">
            <mxPoint x="338.75" y="40" as="sourcePoint" />
            <mxPoint x="339" y="90" as="targetPoint" />
          </mxGeometry>
        </mxCell>
        <mxCell id="nYWHVTbInicaqjC0b95Y-29" value="Http" style="edgeLabel;resizable=0;html=1;align=center;verticalAlign=middle;" parent="nYWHVTbInicaqjC0b95Y-28" connectable="0" vertex="1">
          <mxGeometry relative="1" as="geometry" />
        </mxCell>
        <mxCell id="nYWHVTbInicaqjC0b95Y-32" value="" style="endArrow=none;html=1;rounded=0;edgeStyle=orthogonalEdgeStyle;entryX=0.5;entryY=0;entryDx=0;entryDy=0;fillColor=#d5e8d4;strokeColor=#82b366;strokeWidth=5;" parent="1" target="nYWHVTbInicaqjC0b95Y-3" edge="1">
          <mxGeometry width="50" height="50" relative="1" as="geometry">
            <mxPoint x="340" y="160" as="sourcePoint" />
            <mxPoint x="430" y="240" as="targetPoint" />
            <Array as="points">
              <mxPoint x="340" y="200" />
              <mxPoint x="430" y="200" />
            </Array>
          </mxGeometry>
        </mxCell>
        <mxCell id="nYWHVTbInicaqjC0b95Y-33" value="&lt;font style=&quot;font-size: 20px&quot;&gt;&lt;b&gt;Kubernetes&lt;/b&gt;&lt;/font&gt;" style="text;html=1;strokeColor=none;fillColor=none;align=center;verticalAlign=middle;whiteSpace=wrap;rounded=0;" parent="1" vertex="1">
          <mxGeometry x="160" y="-10" width="80" height="30" as="geometry" />
        </mxCell>
        <mxCell id="nYWHVTbInicaqjC0b95Y-34" value="" style="endArrow=none;html=1;rounded=0;edgeStyle=orthogonalEdgeStyle;entryX=0.5;entryY=0;entryDx=0;entryDy=0;fillColor=#d5e8d4;strokeColor=#82b366;strokeWidth=5;" parent="1" target="nYWHVTbInicaqjC0b95Y-2" edge="1">
          <mxGeometry width="50" height="50" relative="1" as="geometry">
            <mxPoint x="340" y="160" as="sourcePoint" />
            <mxPoint x="440" y="250" as="targetPoint" />
            <Array as="points">
              <mxPoint x="340" y="160" />
              <mxPoint x="340" y="200" />
              <mxPoint x="250" y="200" />
            </Array>
          </mxGeometry>
        </mxCell>
        <mxCell id="nYWHVTbInicaqjC0b95Y-35" value="" style="rounded=0;whiteSpace=wrap;html=1;fontSize=20;" parent="1" vertex="1">
          <mxGeometry x="-20" y="-270" width="60" height="30" as="geometry" />
        </mxCell>
        <mxCell id="nYWHVTbInicaqjC0b95Y-36" value="" style="rounded=0;whiteSpace=wrap;html=1;fontSize=20;fillColor=#f8cecc;strokeColor=#b85450;" parent="1" vertex="1">
          <mxGeometry x="160" y="-270" width="60" height="30" as="geometry" />
        </mxCell>
        <mxCell id="nYWHVTbInicaqjC0b95Y-37" value="" style="rounded=0;whiteSpace=wrap;html=1;fontSize=20;fillColor=#d5e8d4;strokeColor=#82b366;" parent="1" vertex="1">
          <mxGeometry x="570" y="-270" width="60" height="30" as="geometry" />
        </mxCell>
        <mxCell id="nYWHVTbInicaqjC0b95Y-39" value="- Planned" style="text;html=1;strokeColor=none;fillColor=none;align=center;verticalAlign=middle;whiteSpace=wrap;rounded=0;fontSize=20;" parent="1" vertex="1">
          <mxGeometry x="50" y="-270" width="100" height="30" as="geometry" />
        </mxCell>
        <mxCell id="nYWHVTbInicaqjC0b95Y-40" value="- In progress" style="text;html=1;strokeColor=none;fillColor=none;align=center;verticalAlign=middle;whiteSpace=wrap;rounded=0;fontSize=20;" parent="1" vertex="1">
          <mxGeometry x="230" y="-270" width="120" height="30" as="geometry" />
        </mxCell>
        <mxCell id="nYWHVTbInicaqjC0b95Y-41" value="- Complete" style="text;html=1;strokeColor=none;fillColor=none;align=center;verticalAlign=middle;whiteSpace=wrap;rounded=0;fontSize=20;" parent="1" vertex="1">
          <mxGeometry x="640" y="-270" width="110" height="30" as="geometry" />
        </mxCell>
        <mxCell id="g0syKWQQ49Jkf8N2EbLG-2" value="" style="rounded=0;whiteSpace=wrap;html=1;fontSize=20;fillColor=#e1d5e7;strokeColor=#9673a6;" vertex="1" parent="1">
          <mxGeometry x="362.5" y="-270" width="60" height="30" as="geometry" />
        </mxCell>
        <mxCell id="g0syKWQQ49Jkf8N2EbLG-4" value="- Wait regress" style="text;html=1;strokeColor=none;fillColor=none;align=center;verticalAlign=middle;whiteSpace=wrap;rounded=0;fontSize=20;" vertex="1" parent="1">
          <mxGeometry x="377.5" y="-270" width="230" height="30" as="geometry" />
        </mxCell>
        <mxCell id="g0syKWQQ49Jkf8N2EbLG-8" value="" style="shape=offPageConnector;whiteSpace=wrap;html=1;" vertex="1" parent="1">
          <mxGeometry x="-20" y="-190" width="20" height="20" as="geometry" />
        </mxCell>
        <mxCell id="g0syKWQQ49Jkf8N2EbLG-9" value="&lt;font style=&quot;font-size: 14px&quot;&gt;- Security (Oauth2 + JWT)&lt;/font&gt;" style="text;html=1;strokeColor=none;fillColor=none;align=center;verticalAlign=middle;whiteSpace=wrap;rounded=0;fontSize=20;" vertex="1" parent="1">
          <mxGeometry x="-2.5" y="-200" width="202.5" height="30" as="geometry" />
        </mxCell>
        <mxCell id="g0syKWQQ49Jkf8N2EbLG-10" value="" style="triangle;whiteSpace=wrap;html=1;fontSize=14;" vertex="1" parent="1">
          <mxGeometry x="200" y="-190" width="20" height="20" as="geometry" />
        </mxCell>
        <mxCell id="g0syKWQQ49Jkf8N2EbLG-11" value="&lt;font style=&quot;font-size: 14px&quot;&gt;- CI / CD (GitHub Actions + K8s cron job)&lt;/font&gt;" style="text;html=1;strokeColor=none;fillColor=none;align=center;verticalAlign=middle;whiteSpace=wrap;rounded=0;fontSize=20;" vertex="1" parent="1">
          <mxGeometry x="220" y="-200" width="290" height="30" as="geometry" />
        </mxCell>
        <mxCell id="g0syKWQQ49Jkf8N2EbLG-12" value="" style="verticalLabelPosition=bottom;verticalAlign=top;html=1;shape=mxgraph.basic.sun;fontSize=14;" vertex="1" parent="1">
          <mxGeometry x="500" y="-190" width="20" height="20" as="geometry" />
        </mxCell>
        <mxCell id="g0syKWQQ49Jkf8N2EbLG-13" value="&lt;font style=&quot;font-size: 14px&quot;&gt;&amp;nbsp;- Monitoring (Graphana + Prometheus)&lt;/font&gt;" style="text;html=1;strokeColor=none;fillColor=none;align=center;verticalAlign=middle;whiteSpace=wrap;rounded=0;fontSize=20;" vertex="1" parent="1">
          <mxGeometry x="510" y="-200" width="290" height="30" as="geometry" />
        </mxCell>
        <mxCell id="g0syKWQQ49Jkf8N2EbLG-14" value="" style="shape=offPageConnector;whiteSpace=wrap;html=1;strokeWidth=2;" vertex="1" parent="1">
          <mxGeometry x="200" y="240" width="20" height="20" as="geometry" />
        </mxCell>
        <mxCell id="g0syKWQQ49Jkf8N2EbLG-15" value="" style="triangle;whiteSpace=wrap;html=1;fontSize=14;fillColor=#d5e8d4;strokeColor=#82b366;strokeWidth=2;" vertex="1" parent="1">
          <mxGeometry x="230" y="240" width="20" height="20" as="geometry" />
        </mxCell>
        <mxCell id="g0syKWQQ49Jkf8N2EbLG-16" value="" style="verticalLabelPosition=bottom;verticalAlign=top;html=1;shape=mxgraph.basic.sun;fontSize=14;fillColor=#d5e8d4;strokeColor=#82b366;strokeWidth=2;" vertex="1" parent="1">
          <mxGeometry x="260" y="240" width="20" height="20" as="geometry" />
        </mxCell>
        <mxCell id="g0syKWQQ49Jkf8N2EbLG-17" value="" style="shape=offPageConnector;whiteSpace=wrap;html=1;strokeWidth=2;" vertex="1" parent="1">
          <mxGeometry x="380" y="240" width="20" height="20" as="geometry" />
        </mxCell>
        <mxCell id="g0syKWQQ49Jkf8N2EbLG-18" value="" style="triangle;whiteSpace=wrap;html=1;fontSize=14;strokeWidth=2;" vertex="1" parent="1">
          <mxGeometry x="410" y="240" width="20" height="20" as="geometry" />
        </mxCell>
        <mxCell id="g0syKWQQ49Jkf8N2EbLG-19" value="" style="verticalLabelPosition=bottom;verticalAlign=top;html=1;shape=mxgraph.basic.sun;fontSize=14;strokeWidth=2;" vertex="1" parent="1">
          <mxGeometry x="440" y="240" width="20" height="20" as="geometry" />
        </mxCell>
        <mxCell id="g0syKWQQ49Jkf8N2EbLG-20" value="" style="shape=offPageConnector;whiteSpace=wrap;html=1;strokeWidth=2;" vertex="1" parent="1">
          <mxGeometry x="280" y="80" width="20" height="20" as="geometry" />
        </mxCell>
        <mxCell id="g0syKWQQ49Jkf8N2EbLG-21" value="" style="triangle;whiteSpace=wrap;html=1;fontSize=14;strokeWidth=2;" vertex="1" parent="1">
          <mxGeometry x="310" y="80" width="20" height="20" as="geometry" />
        </mxCell>
        <mxCell id="g0syKWQQ49Jkf8N2EbLG-22" value="" style="verticalLabelPosition=bottom;verticalAlign=top;html=1;shape=mxgraph.basic.sun;fontSize=14;strokeWidth=2;" vertex="1" parent="1">
          <mxGeometry x="340" y="80" width="20" height="20" as="geometry" />
        </mxCell>
        <mxCell id="g0syKWQQ49Jkf8N2EbLG-23" value="&lt;font style=&quot;font-size: 36px;&quot;&gt;&lt;b style=&quot;font-size: 36px;&quot;&gt;Status:&lt;/b&gt;&lt;/font&gt;" style="text;html=1;strokeColor=none;fillColor=none;align=center;verticalAlign=middle;whiteSpace=wrap;rounded=0;fontSize=36;" vertex="1" parent="1">
          <mxGeometry x="-180" y="-270" width="80" height="30" as="geometry" />
        </mxCell>
        <mxCell id="g0syKWQQ49Jkf8N2EbLG-24" value="&lt;font style=&quot;font-size: 36px;&quot;&gt;&lt;b style=&quot;font-size: 36px;&quot;&gt;Legend:&lt;/b&gt;&lt;/font&gt;" style="text;html=1;strokeColor=none;fillColor=none;align=center;verticalAlign=middle;whiteSpace=wrap;rounded=0;fontSize=36;" vertex="1" parent="1">
          <mxGeometry x="-170" y="-200" width="80" height="30" as="geometry" />
        </mxCell>
        <mxCell id="g0syKWQQ49Jkf8N2EbLG-25" value="&lt;font style=&quot;font-size: 36px;&quot;&gt;&lt;b style=&quot;font-size: 36px;&quot;&gt;Scheme:&lt;br style=&quot;font-size: 36px;&quot;&gt;&lt;/b&gt;&lt;/font&gt;" style="text;html=1;strokeColor=none;fillColor=none;align=center;verticalAlign=middle;whiteSpace=wrap;rounded=0;fontSize=36;" vertex="1" parent="1">
          <mxGeometry x="-170" y="-120" width="80" height="30" as="geometry" />
        </mxCell>
      </root>
    </mxGraphModel>
  </diagram>
</mxfile>
